<svg width="2229" height="350" viewBox="0 0 2229 350" fill="none" xmlns="http://www.w3.org/2000/svg">
<g clip-path="url(#clip0_927_751)">
<path d="M975 501.373C939.719 489.925 903.758 504.71 894.627 534.378C885.486 564.056 906.697 597.407 941.978 608.855C977.258 620.303 1013.23 605.507 1022.36 575.828C1031.46 546.161 1010.27 512.821 975 501.373ZM844.878 598.076C832.862 607.505 831.587 626.491 842.004 640.488C852.409 654.506 870.574 658.211 882.579 648.793C894.573 639.365 895.87 620.367 885.475 606.371C875.069 592.352 856.883 588.648 844.878 598.076ZM1442.64 229.074C1442.69 215.405 1439.6 201.907 1433.6 189.626C1427.59 177.345 1418.84 166.612 1408.01 158.258C1408.18 156.195 1408.26 154.111 1408.26 152.005C1408.26 106.353 1372.26 69.3527 1327.84 69.3527C1325.03 69.3527 1322.26 69.5039 1319.54 69.7847C1302.66 40.3331 1271.49 20.5584 1235.82 20.5584C1214.74 20.5584 1195.25 27.4488 1179.33 39.1559C1159.24 18.6684 1131.56 6 1100.99 6C1051.22 6 1009.07 39.5987 994.871 85.9414C977.72 73.6946 957.167 67.1129 936.088 67.1171C878.97 67.1171 832.689 114.691 832.689 173.367C832.689 190.69 836.73 207.031 843.873 221.47C813.866 243.329 794.297 279.272 794.297 319.934C794.297 386.537 846.823 440.537 911.646 440.537C935.483 440.537 957.646 433.225 976.167 420.687C986.183 471.717 1030.04 510.164 1082.67 510.164C1121.83 510.164 1156.13 488.867 1175.24 456.953C1181.91 463.841 1189.9 469.32 1198.73 473.066C1207.57 476.811 1217.06 478.747 1226.65 478.758C1264.75 478.758 1296.01 448.691 1299.25 410.394C1308.39 413.796 1318.08 415.533 1327.84 415.524C1374.36 415.524 1412.07 376.774 1412.07 328.984C1412.07 318.962 1410.39 309.339 1407.33 300.386C1418.35 292.055 1427.28 281.273 1433.41 268.895C1439.54 256.517 1442.7 242.883 1442.64 229.074Z" fill="#5B84A8" fill-opacity="0.5"/>
<path d="M1299.17 501.373C1263.89 489.925 1227.93 504.71 1218.8 534.378C1209.66 564.056 1230.87 597.407 1266.15 608.855C1301.43 620.303 1337.4 605.507 1346.53 575.828C1355.63 546.161 1334.44 512.821 1299.17 501.373ZM1169.05 598.076C1157.03 607.505 1155.76 626.491 1166.17 640.488C1176.58 654.506 1194.74 658.211 1206.75 648.793C1218.74 639.365 1220.04 620.367 1209.64 606.371C1199.24 592.352 1181.05 588.648 1169.05 598.076ZM1766.81 229.074C1766.86 215.405 1763.77 201.907 1757.77 189.626C1751.76 177.345 1743.01 166.612 1732.18 158.258C1732.35 156.195 1732.43 154.111 1732.43 152.005C1732.43 106.353 1696.43 69.3527 1652.01 69.3527C1649.2 69.3527 1646.43 69.5039 1643.71 69.7847C1626.83 40.3331 1595.66 20.5584 1559.99 20.5584C1538.91 20.5584 1519.42 27.4488 1503.5 39.1559C1483.41 18.6684 1455.73 6 1425.16 6C1375.39 6 1333.24 39.5987 1319.04 85.9414C1301.89 73.6946 1281.34 67.1129 1260.26 67.1171C1203.14 67.1171 1156.86 114.691 1156.86 173.367C1156.86 190.69 1160.9 207.031 1168.04 221.47C1138.04 243.329 1118.47 279.272 1118.47 319.934C1118.47 386.537 1170.99 440.537 1235.82 440.537C1259.65 440.537 1281.82 433.225 1300.34 420.687C1310.35 471.717 1354.21 510.164 1406.84 510.164C1446 510.164 1480.3 488.867 1499.41 456.953C1506.08 463.841 1514.07 469.32 1522.9 473.066C1531.74 476.811 1541.23 478.747 1550.82 478.758C1588.92 478.758 1620.18 448.691 1623.41 410.394C1632.56 413.796 1642.25 415.533 1652.01 415.524C1698.53 415.524 1736.24 376.774 1736.24 328.984C1736.24 318.962 1734.56 309.339 1731.5 300.386C1742.52 292.055 1751.45 281.273 1757.58 268.895C1763.71 256.517 1766.87 242.883 1766.81 229.074Z" fill="#5B84A8" fill-opacity="0.5"/>
<path d="M590.318 501.373C555.038 489.925 519.076 504.71 509.946 534.378C500.804 564.056 522.016 597.407 557.296 608.855C592.577 620.303 628.549 605.507 637.679 575.828C646.778 546.161 625.588 512.821 590.318 501.373ZM460.196 598.076C448.18 607.505 446.905 626.491 457.322 640.488C467.728 654.506 485.892 658.211 497.897 648.793C509.892 639.365 511.188 620.367 500.793 606.371C490.387 592.352 472.201 588.648 460.196 598.076ZM1057.95 229.074C1058.01 215.405 1054.92 201.907 1048.92 189.626C1042.91 177.345 1034.16 166.612 1023.33 158.258C1023.5 156.195 1023.58 154.111 1023.58 152.005C1023.58 106.353 987.577 69.3527 943.155 69.3527C940.346 69.3527 937.58 69.5039 934.857 69.7847C917.978 40.3331 886.804 20.5584 851.134 20.5584C830.063 20.5584 810.57 27.4488 794.653 39.1559C774.555 18.6684 746.881 6 716.312 6C666.541 6 624.388 39.5987 610.19 85.9414C593.038 73.6946 572.486 67.1129 551.407 67.1171C494.288 67.1171 448.008 114.691 448.008 173.367C448.008 190.69 452.049 207.031 459.191 221.47C429.184 243.329 409.615 279.272 409.615 319.934C409.615 386.537 462.141 440.537 526.965 440.537C550.802 440.537 572.964 433.225 591.485 420.687C601.502 471.717 645.362 510.164 697.986 510.164C737.145 510.164 771.453 488.867 790.558 456.953C797.232 463.841 805.221 469.32 814.052 473.066C822.884 476.811 832.378 478.747 841.971 478.758C880.072 478.758 911.333 448.691 914.564 410.394C923.712 413.796 933.395 415.533 943.155 415.524C989.674 415.524 1027.39 376.774 1027.39 328.984C1027.39 318.962 1025.71 309.339 1022.65 300.386C1033.67 292.055 1042.6 281.273 1048.73 268.895C1054.85 256.517 1058.01 242.883 1057.95 229.074Z" fill="#5B84A8" fill-opacity="0.5"/>
<path d="M179.703 501.373C144.423 489.925 108.461 504.71 99.3306 534.378C90.189 564.056 111.4 597.407 146.681 608.855C181.961 620.303 217.933 605.507 227.064 575.828C236.163 546.161 214.973 512.821 179.703 501.373ZM49.5813 598.076C37.5654 607.505 36.2903 626.491 46.707 640.488C57.1128 654.506 75.2772 658.211 87.2822 648.793C99.2765 639.365 100.573 620.367 90.1782 606.371C79.7723 592.352 61.5864 588.648 49.5813 598.076ZM647.34 229.074C647.398 215.405 644.305 201.907 638.301 189.626C632.297 177.345 623.543 166.612 612.718 158.258C612.88 156.195 612.967 154.111 612.967 152.005C612.967 106.353 576.962 69.3527 532.54 69.3527C529.731 69.3527 526.965 69.5039 524.242 69.7847C507.363 40.3331 476.189 20.5584 440.519 20.5584C419.448 20.5584 399.955 27.4488 384.038 39.1559C363.94 18.6684 336.266 6 305.697 6C255.926 6 213.773 39.5987 199.575 85.9414C182.423 73.6946 161.871 67.1129 140.792 67.1171C83.6732 67.1171 37.3925 114.691 37.3925 173.367C37.3925 190.69 41.4338 207.031 48.5764 221.47C18.569 243.329 -1 279.272 -1 319.934C-1 386.537 51.5263 440.537 116.349 440.537C140.187 440.537 162.349 433.225 180.87 420.687C190.887 471.717 234.747 510.164 287.371 510.164C326.53 510.164 360.838 488.867 379.943 456.953C386.617 463.841 394.606 469.32 403.437 473.066C412.269 476.811 421.762 478.747 431.356 478.758C469.457 478.758 500.718 448.691 503.948 410.394C513.097 413.796 522.78 415.533 532.54 415.524C579.059 415.524 616.77 376.774 616.77 328.984C616.77 318.962 615.096 309.339 612.038 300.386C623.057 292.055 631.985 281.273 638.112 268.895C644.24 256.517 647.399 242.883 647.34 229.074Z" fill="#5B84A8" fill-opacity="0.5"/>
<path d="M1744.36 501.373C1709.08 489.925 1673.12 504.71 1663.99 534.378C1654.85 564.056 1676.06 597.407 1711.34 608.855C1746.62 620.303 1782.59 605.507 1791.72 575.828C1800.82 546.161 1779.63 512.821 1744.36 501.373ZM1614.24 598.076C1602.22 607.505 1600.95 626.491 1611.37 640.488C1621.77 654.506 1639.94 658.211 1651.94 648.793C1663.94 639.365 1665.23 620.367 1654.84 606.371C1644.43 592.352 1626.25 588.648 1614.24 598.076ZM2212 229.074C2212.06 215.405 2208.96 201.907 2202.96 189.626C2196.96 177.345 2188.2 166.612 2177.38 158.258C2177.54 156.195 2177.63 154.111 2177.63 152.005C2177.63 106.353 2141.62 69.3527 2097.2 69.3527C2094.39 69.3527 2091.62 69.5039 2088.9 69.7847C2072.02 40.3331 2040.85 20.5584 2005.18 20.5584C1984.11 20.5584 1964.61 27.4488 1948.7 39.1559C1928.6 18.6684 1900.93 6 1870.36 6C1820.59 6 1778.43 39.5987 1764.23 85.9414C1747.08 73.6946 1726.53 67.1129 1705.45 67.1171C1648.33 67.1171 1602.05 114.691 1602.05 173.367C1602.05 190.69 1606.09 207.031 1613.24 221.47C1583.23 243.329 1563.66 279.272 1563.66 319.934C1563.66 386.537 1616.19 440.537 1681.01 440.537C1704.85 440.537 1727.01 433.225 1745.53 420.687C1755.55 471.717 1799.41 510.164 1852.03 510.164C1891.19 510.164 1925.5 488.867 1944.6 456.953C1951.28 463.841 1959.27 469.32 1968.1 473.066C1976.93 476.811 1986.42 478.747 1996.02 478.758C2034.12 478.758 2065.38 448.691 2068.61 410.394C2077.76 413.796 2087.44 415.533 2097.2 415.524C2143.72 415.524 2181.43 376.774 2181.43 328.984C2181.43 318.962 2179.76 309.339 2176.7 300.386C2187.72 292.055 2196.64 281.273 2202.77 268.895C2208.9 256.517 2212.06 242.883 2212 229.074Z" fill="#5B84A8" fill-opacity="0.5"/>
<path d="M975 588.138C939.719 576.672 903.758 591.48 894.627 621.193C885.486 650.917 906.697 684.319 941.978 695.785C977.258 707.251 1013.23 692.432 1022.36 662.708C1031.46 632.994 1010.27 599.603 975 588.138ZM844.878 684.99C832.862 694.433 831.587 713.449 842.004 727.467C852.409 741.507 870.574 745.217 882.579 735.785C894.573 726.342 895.87 707.315 885.475 693.297C875.069 679.257 856.883 675.547 844.878 684.99ZM1442.64 315.418C1442.69 301.728 1439.6 288.209 1433.6 275.909C1427.59 263.61 1418.84 252.86 1408.01 244.493C1408.18 242.427 1408.26 240.339 1408.26 238.23C1408.26 192.508 1372.26 155.45 1327.84 155.45C1325.03 155.45 1322.26 155.602 1319.54 155.883C1302.66 126.386 1271.49 106.581 1235.82 106.581C1214.74 106.581 1195.25 113.482 1179.33 125.207C1159.24 104.688 1131.56 92 1100.99 92C1051.22 92 1009.07 125.651 994.871 172.065C977.72 159.799 957.167 153.207 936.088 153.211C878.97 153.211 832.689 200.859 832.689 259.625C832.689 276.975 836.73 293.341 843.873 307.803C813.866 329.696 794.297 365.693 794.297 406.418C794.297 473.124 846.823 527.208 911.646 527.208C935.483 527.208 957.646 519.885 976.167 507.327C986.183 558.435 1030.04 596.942 1082.67 596.942C1121.83 596.942 1156.13 575.612 1175.24 543.649C1181.91 550.548 1189.9 556.035 1198.73 559.787C1207.57 563.538 1217.06 565.477 1226.65 565.488C1264.75 565.488 1296.01 535.374 1299.25 497.018C1308.39 500.425 1318.08 502.165 1327.84 502.156C1374.36 502.156 1412.07 463.346 1412.07 415.482C1412.07 405.445 1410.39 395.807 1407.33 386.84C1418.35 378.496 1427.28 367.698 1433.41 355.301C1439.54 342.904 1442.7 329.249 1442.64 315.418Z" fill="#5B84A8"/>
<path d="M1299.17 588.138C1263.89 576.672 1227.93 591.48 1218.8 621.193C1209.66 650.917 1230.87 684.319 1266.15 695.785C1301.43 707.251 1337.4 692.432 1346.53 662.708C1355.63 632.994 1334.44 599.603 1299.17 588.138ZM1169.05 684.99C1157.03 694.433 1155.76 713.449 1166.17 727.467C1176.58 741.507 1194.74 745.217 1206.75 735.785C1218.74 726.342 1220.04 707.315 1209.64 693.297C1199.24 679.257 1181.05 675.547 1169.05 684.99ZM1766.81 315.418C1766.86 301.728 1763.77 288.209 1757.77 275.909C1751.76 263.61 1743.01 252.86 1732.18 244.493C1732.35 242.427 1732.43 240.339 1732.43 238.23C1732.43 192.508 1696.43 155.45 1652.01 155.45C1649.2 155.45 1646.43 155.602 1643.71 155.883C1626.83 126.386 1595.66 106.581 1559.99 106.581C1538.91 106.581 1519.42 113.482 1503.5 125.207C1483.41 104.688 1455.73 92 1425.16 92C1375.39 92 1333.24 125.651 1319.04 172.065C1301.89 159.799 1281.34 153.207 1260.26 153.211C1203.14 153.211 1156.86 200.859 1156.86 259.625C1156.86 276.975 1160.9 293.341 1168.04 307.803C1138.04 329.696 1118.47 365.693 1118.47 406.418C1118.47 473.124 1170.99 527.208 1235.82 527.208C1259.65 527.208 1281.82 519.885 1300.34 507.327C1310.35 558.435 1354.21 596.942 1406.84 596.942C1446 596.942 1480.3 575.612 1499.41 543.649C1506.08 550.548 1514.07 556.035 1522.9 559.787C1531.74 563.538 1541.23 565.477 1550.82 565.488C1588.92 565.488 1620.18 535.374 1623.41 497.018C1632.56 500.425 1642.25 502.165 1652.01 502.156C1698.53 502.156 1736.24 463.346 1736.24 415.482C1736.24 405.445 1734.56 395.807 1731.5 386.84C1742.52 378.496 1751.45 367.698 1757.58 355.301C1763.71 342.904 1766.87 329.249 1766.81 315.418Z" fill="#5B84A8"/>
<path d="M590.318 588.138C555.038 576.672 519.076 591.48 509.946 621.193C500.804 650.917 522.016 684.319 557.296 695.785C592.577 707.251 628.549 692.432 637.679 662.708C646.778 632.994 625.588 599.603 590.318 588.138ZM460.196 684.99C448.18 694.433 446.905 713.449 457.322 727.467C467.728 741.507 485.892 745.217 497.897 735.785C509.892 726.342 511.188 707.315 500.793 693.297C490.387 679.257 472.201 675.547 460.196 684.99ZM1057.95 315.418C1058.01 301.728 1054.92 288.209 1048.92 275.909C1042.91 263.61 1034.16 252.86 1023.33 244.493C1023.5 242.427 1023.58 240.339 1023.58 238.23C1023.58 192.508 987.577 155.45 943.155 155.45C940.346 155.45 937.58 155.602 934.857 155.883C917.978 126.386 886.804 106.581 851.134 106.581C830.063 106.581 810.57 113.482 794.653 125.207C774.555 104.688 746.881 92 716.312 92C666.541 92 624.388 125.651 610.19 172.065C593.038 159.799 572.486 153.207 551.407 153.211C494.288 153.211 448.008 200.859 448.008 259.625C448.008 276.975 452.049 293.341 459.191 307.803C429.184 329.696 409.615 365.693 409.615 406.418C409.615 473.124 462.141 527.208 526.965 527.208C550.802 527.208 572.964 519.885 591.485 507.327C601.502 558.435 645.362 596.942 697.986 596.942C737.145 596.942 771.453 575.612 790.558 543.649C797.232 550.548 805.221 556.035 814.052 559.787C822.884 563.538 832.378 565.477 841.971 565.488C880.072 565.488 911.333 535.374 914.564 497.018C923.712 500.425 933.395 502.165 943.155 502.156C989.674 502.156 1027.39 463.346 1027.39 415.482C1027.39 405.445 1025.71 395.807 1022.65 386.84C1033.67 378.496 1042.6 367.698 1048.73 355.301C1054.85 342.904 1058.01 329.249 1057.95 315.418Z" fill="#5B84A8"/>
<path d="M179.703 588.138C144.423 576.672 108.461 591.48 99.3306 621.193C90.189 650.917 111.4 684.319 146.681 695.785C181.961 707.251 217.933 692.432 227.064 662.708C236.163 632.994 214.973 599.603 179.703 588.138ZM49.5813 684.99C37.5654 694.433 36.2903 713.449 46.707 727.467C57.1128 741.507 75.2772 745.217 87.2822 735.785C99.2765 726.342 100.573 707.315 90.1782 693.297C79.7723 679.257 61.5864 675.547 49.5813 684.99ZM647.34 315.418C647.398 301.728 644.305 288.209 638.301 275.909C632.297 263.61 623.543 252.86 612.718 244.493C612.88 242.427 612.967 240.339 612.967 238.23C612.967 192.508 576.962 155.45 532.54 155.45C529.731 155.45 526.965 155.602 524.242 155.883C507.363 126.386 476.189 106.581 440.519 106.581C419.448 106.581 399.955 113.482 384.038 125.207C363.94 104.688 336.266 92 305.697 92C255.926 92 213.773 125.651 199.575 172.065C182.423 159.799 161.871 153.207 140.792 153.211C83.6732 153.211 37.3925 200.859 37.3925 259.625C37.3925 276.975 41.4338 293.341 48.5764 307.803C18.569 329.696 -1 365.693 -1 406.418C-1 473.124 51.5263 527.208 116.349 527.208C140.187 527.208 162.349 519.885 180.87 507.327C190.887 558.435 234.747 596.942 287.371 596.942C326.53 596.942 360.838 575.612 379.943 543.649C386.617 550.548 394.606 556.035 403.437 559.787C412.269 563.538 421.762 565.477 431.356 565.488C469.457 565.488 500.718 535.374 503.948 497.018C513.097 500.425 522.78 502.165 532.54 502.156C579.059 502.156 616.77 463.346 616.77 415.482C616.77 405.445 615.096 395.807 612.038 386.84C623.057 378.496 631.985 367.698 638.112 355.301C644.24 342.904 647.399 329.249 647.34 315.418Z" fill="#5B84A8"/>
<path d="M1744.36 588.138C1709.08 576.672 1673.12 591.48 1663.99 621.193C1654.85 650.917 1676.06 684.319 1711.34 695.785C1746.62 707.251 1782.59 692.432 1791.72 662.708C1800.82 632.994 1779.63 599.603 1744.36 588.138ZM1614.24 684.99C1602.22 694.433 1600.95 713.449 1611.37 727.467C1621.77 741.507 1639.94 745.217 1651.94 735.785C1663.94 726.342 1665.23 707.315 1654.84 693.297C1644.43 679.257 1626.25 675.547 1614.24 684.99ZM2212 315.418C2212.06 301.728 2208.96 288.209 2202.96 275.909C2196.96 263.61 2188.2 252.86 2177.38 244.493C2177.54 242.427 2177.63 240.339 2177.63 238.23C2177.63 192.508 2141.62 155.45 2097.2 155.45C2094.39 155.45 2091.62 155.602 2088.9 155.883C2072.02 126.386 2040.85 106.581 2005.18 106.581C1984.11 106.581 1964.61 113.482 1948.7 125.207C1928.6 104.688 1900.93 92 1870.36 92C1820.59 92 1778.43 125.651 1764.23 172.065C1747.08 159.799 1726.53 153.207 1705.45 153.211C1648.33 153.211 1602.05 200.859 1602.05 259.625C1602.05 276.975 1606.09 293.341 1613.24 307.803C1583.23 329.696 1563.66 365.693 1563.66 406.418C1563.66 473.124 1616.19 527.208 1681.01 527.208C1704.85 527.208 1727.01 519.885 1745.53 507.327C1755.55 558.435 1799.41 596.942 1852.03 596.942C1891.19 596.942 1925.5 575.612 1944.6 543.649C1951.28 550.548 1959.27 556.035 1968.1 559.787C1976.93 563.538 1986.42 565.477 1996.02 565.488C2034.12 565.488 2065.38 535.374 2068.61 497.018C2077.76 500.425 2087.44 502.165 2097.2 502.156C2143.72 502.156 2181.43 463.346 2181.43 415.482C2181.43 405.445 2179.76 395.807 2176.7 386.84C2187.72 378.496 2196.64 367.698 2202.77 355.301C2208.9 342.904 2212.06 329.249 2212 315.418Z" fill="#5B84A8"/>
<path d="M1004.44 669.373C969.144 657.925 933.167 672.71 924.032 702.378C914.886 732.056 936.107 765.407 971.404 776.855C1006.7 788.303 1042.69 773.507 1051.82 743.828C1060.93 714.161 1039.73 680.821 1004.44 669.373ZM874.26 766.076C862.239 775.505 860.963 794.491 871.385 808.488C881.795 822.506 899.968 826.211 911.978 816.793C923.978 807.365 925.275 788.367 914.875 774.371C904.465 760.352 886.271 756.648 874.26 766.076ZM1472.29 397.074C1472.35 383.405 1469.25 369.907 1463.25 357.626C1457.24 345.345 1448.48 334.612 1437.65 326.258C1437.81 324.195 1437.9 322.111 1437.9 320.005C1437.9 274.353 1401.88 237.353 1357.44 237.353C1354.63 237.353 1351.86 237.504 1349.13 237.785C1332.25 208.333 1301.06 188.558 1265.37 188.558C1244.29 188.558 1224.79 195.449 1208.87 207.156C1188.76 186.668 1161.07 174 1130.49 174C1080.7 174 1038.53 207.599 1024.32 253.941C1007.16 241.695 986.6 235.113 965.512 235.117C908.367 235.117 862.066 282.691 862.066 341.367C862.066 358.69 866.109 375.031 873.255 389.47C843.234 411.329 823.656 447.272 823.656 487.934C823.656 554.537 876.206 608.537 941.058 608.537C964.906 608.537 987.079 601.225 1005.61 588.687C1015.63 639.717 1059.51 678.164 1112.16 678.164C1151.33 678.164 1185.66 656.867 1204.77 624.953C1211.45 631.841 1219.44 637.32 1228.28 641.066C1237.11 644.811 1246.61 646.747 1256.21 646.758C1294.33 646.758 1325.6 616.691 1328.83 578.394C1337.98 581.796 1347.67 583.533 1357.44 583.524C1403.98 583.524 1441.71 544.774 1441.71 496.984C1441.71 486.962 1440.03 477.339 1436.97 468.386C1448 460.055 1456.93 449.273 1463.06 436.895C1469.19 424.517 1472.35 410.883 1472.29 397.074Z" fill="#1F5383"/>
<path d="M1328.76 669.373C1293.46 657.925 1257.48 672.71 1248.35 702.378C1239.2 732.056 1260.42 765.407 1295.72 776.855C1331.02 788.303 1367 773.507 1376.14 743.828C1385.24 714.161 1364.04 680.821 1328.76 669.373ZM1198.58 766.076C1186.56 775.505 1185.28 794.491 1195.7 808.488C1206.11 822.506 1224.28 826.211 1236.29 816.793C1248.29 807.365 1249.59 788.367 1239.19 774.371C1228.78 760.352 1210.59 756.648 1198.58 766.076ZM1796.6 397.074C1796.66 383.405 1793.57 369.907 1787.56 357.626C1781.56 345.345 1772.8 334.612 1761.97 326.258C1762.13 324.195 1762.22 322.111 1762.22 320.005C1762.22 274.353 1726.2 237.353 1681.75 237.353C1678.94 237.353 1676.18 237.504 1673.45 237.785C1656.57 208.333 1625.38 188.558 1589.69 188.558C1568.61 188.558 1549.11 195.449 1533.18 207.156C1513.08 186.668 1485.39 174 1454.81 174C1405.01 174 1362.84 207.599 1348.64 253.941C1331.48 241.695 1310.92 235.113 1289.83 235.117C1232.68 235.117 1186.38 282.691 1186.38 341.367C1186.38 358.69 1190.43 375.031 1197.57 389.47C1167.55 411.329 1147.97 447.272 1147.97 487.934C1147.97 554.537 1200.52 608.537 1265.37 608.537C1289.22 608.537 1311.4 601.225 1329.92 588.687C1339.95 639.717 1383.83 678.164 1436.47 678.164C1475.65 678.164 1509.97 656.867 1529.09 624.953C1535.76 631.841 1543.76 637.32 1552.59 641.066C1561.43 644.811 1570.93 646.747 1580.52 646.758C1618.64 646.758 1649.92 616.691 1653.15 578.394C1662.3 581.796 1671.99 583.533 1681.75 583.524C1728.29 583.524 1766.02 544.774 1766.02 496.984C1766.02 486.962 1764.35 477.339 1761.29 468.386C1772.31 460.055 1781.24 449.273 1787.37 436.895C1793.5 424.517 1796.66 410.883 1796.6 397.074Z" fill="#1F5383"/>
<path d="M619.585 669.373C584.289 657.925 548.311 672.71 539.177 702.378C530.031 732.056 551.252 765.407 586.548 776.855C621.845 788.303 657.833 773.507 666.968 743.828C676.07 714.161 654.871 680.821 619.585 669.373ZM489.405 766.076C477.383 775.505 476.108 794.491 486.529 808.488C496.94 822.506 515.112 826.211 527.123 816.793C539.122 807.365 540.42 788.367 530.02 774.371C519.609 760.352 501.415 756.648 489.405 766.076ZM1087.43 397.074C1087.49 383.405 1084.4 369.907 1078.39 357.626C1072.38 345.345 1063.63 334.612 1052.8 326.258C1052.96 324.195 1053.04 322.111 1053.04 320.005C1053.04 274.353 1017.02 237.353 972.582 237.353C969.771 237.353 967.004 237.504 964.28 237.785C947.393 208.333 916.205 188.558 880.519 188.558C859.439 188.558 839.937 195.449 824.013 207.156C803.905 186.668 776.219 174 745.636 174C695.843 174 653.671 207.599 639.466 253.941C622.307 241.695 601.745 235.113 580.657 235.117C523.512 235.117 477.21 282.691 477.21 341.367C477.21 358.69 481.254 375.031 488.399 389.47C458.379 411.329 438.801 447.272 438.801 487.934C438.801 554.537 491.351 608.537 556.203 608.537C580.051 608.537 602.224 601.225 620.753 588.687C630.774 639.717 674.654 678.164 727.302 678.164C766.479 678.164 800.802 656.867 819.916 624.953C826.592 631.841 834.585 637.32 843.421 641.066C852.256 644.811 861.754 646.747 871.352 646.758C909.47 646.758 940.745 616.691 943.977 578.394C953.129 581.796 962.817 583.533 972.582 583.524C1019.12 583.524 1056.85 544.774 1056.85 496.984C1056.85 486.962 1055.17 477.339 1052.12 468.386C1063.14 460.055 1072.07 449.273 1078.2 436.895C1084.33 424.517 1087.49 410.883 1087.43 397.074Z" fill="#1F5383"/>
<path d="M208.785 669.373C173.488 657.925 137.511 672.71 128.376 702.378C119.23 732.056 140.451 765.407 175.748 776.855C211.044 788.303 247.032 773.507 256.167 743.828C265.27 714.161 244.07 680.821 208.785 669.373ZM78.6042 766.076C66.5828 775.505 65.3072 794.491 75.7285 808.488C86.1391 822.506 104.312 826.211 116.322 816.793C128.322 807.365 129.619 788.367 119.219 774.371C108.809 760.352 90.6147 756.648 78.6042 766.076ZM676.633 397.074C676.691 383.405 673.596 369.907 667.589 357.626C661.583 345.345 652.825 334.612 641.996 326.258C642.158 324.195 642.244 322.111 642.244 320.005C642.244 274.353 606.224 237.353 561.781 237.353C558.971 237.353 556.203 237.504 553.479 237.785C536.593 208.333 505.404 188.558 469.719 188.558C448.638 188.558 429.136 195.449 413.212 207.156C393.104 186.668 365.419 174 334.836 174C285.042 174 242.87 207.599 228.665 253.941C211.506 241.695 190.944 235.113 169.856 235.117C112.711 235.117 66.4099 282.691 66.4099 341.367C66.4099 358.69 70.453 375.031 77.5988 389.47C47.5779 411.329 28 447.272 28 487.934C28 554.537 80.55 608.537 145.402 608.537C169.251 608.537 191.423 601.225 209.952 588.687C219.974 639.717 263.854 678.164 316.501 678.164C355.678 678.164 390.002 656.867 409.115 624.953C415.792 631.841 423.785 637.32 432.62 641.066C441.455 644.811 450.954 646.747 460.551 646.758C498.669 646.758 529.944 616.691 533.177 578.394C542.329 581.796 552.016 583.533 561.781 583.524C608.321 583.524 646.05 544.774 646.05 496.984C646.05 486.962 644.374 477.339 641.315 468.386C652.339 460.055 661.271 449.273 667.401 436.895C673.531 424.517 676.692 410.883 676.633 397.074Z" fill="#1F5383"/>
<path d="M1774.15 669.373C1738.85 657.925 1702.88 672.71 1693.74 702.378C1684.6 732.056 1705.82 765.407 1741.11 776.855C1776.41 788.303 1812.4 773.507 1821.53 743.828C1830.64 714.161 1809.44 680.821 1774.15 669.373ZM1643.97 766.076C1631.95 775.505 1630.67 794.491 1641.1 808.488C1651.51 822.506 1669.68 826.211 1681.69 816.793C1693.69 807.365 1694.99 788.367 1684.59 774.371C1674.18 760.352 1655.98 756.648 1643.97 766.076ZM2242 397.074C2242.06 383.405 2238.96 369.907 2232.96 357.626C2226.95 345.345 2218.19 334.612 2207.36 326.258C2207.52 324.195 2207.61 322.111 2207.61 320.005C2207.61 274.353 2171.59 237.353 2127.15 237.353C2124.34 237.353 2121.57 237.504 2118.85 237.785C2101.96 208.333 2070.77 188.558 2035.09 188.558C2014 188.558 1994.5 195.449 1978.58 207.156C1958.47 186.668 1930.79 174 1900.2 174C1850.41 174 1808.24 207.599 1794.03 253.941C1776.87 241.695 1756.31 235.113 1735.22 235.117C1678.08 235.117 1631.78 282.691 1631.78 341.367C1631.78 358.69 1635.82 375.031 1642.97 389.47C1612.94 411.329 1593.37 447.272 1593.37 487.934C1593.37 554.537 1645.92 608.537 1710.77 608.537C1734.62 608.537 1756.79 601.225 1775.32 588.687C1785.34 639.717 1829.22 678.164 1881.87 678.164C1921.04 678.164 1955.37 656.867 1974.48 624.953C1981.16 631.841 1989.15 637.32 1997.99 641.066C2006.82 644.811 2016.32 646.747 2025.92 646.758C2064.04 646.758 2095.31 616.691 2098.54 578.394C2107.7 581.796 2117.38 583.533 2127.15 583.524C2173.69 583.524 2211.42 544.774 2211.42 496.984C2211.42 486.962 2209.74 477.339 2206.68 468.386C2217.71 460.055 2226.64 449.273 2232.77 436.895C2238.9 424.517 2242.06 410.883 2242 397.074Z" fill="#1F5383"/>
</g>
<defs>
<clipPath id="clip0_927_751">
<rect width="2229" height="350" fill="white"/>
</clipPath>
</defs>
</svg>
